<mxfile host="app.diagrams.net" agent="Mozilla/5.0 (Windows NT 10.0; Win64; x64) AppleWebKit/537.36 (KHTML, like Gecko) Chrome/133.0.0.0 Safari/537.36 OPR/118.0.0.0" version="27.0.9">
  <diagram id="kgpKYQtTHZ0yAKxKKP6v" name="Page-1">
    <mxGraphModel dx="1629" dy="889" grid="1" gridSize="10" guides="1" tooltips="1" connect="1" arrows="1" fold="1" page="1" pageScale="1" pageWidth="500" pageHeight="500" math="0" shadow="0">
      <root>
        <mxCell id="0" />
        <mxCell id="1" parent="0" />
        <mxCell id="bKvTzlDGwV6P-3HPRqgF-17" value="" style="edgeStyle=orthogonalEdgeStyle;rounded=0;orthogonalLoop=1;jettySize=auto;html=1;" edge="1" parent="1" source="bKvTzlDGwV6P-3HPRqgF-15" target="bKvTzlDGwV6P-3HPRqgF-16">
          <mxGeometry relative="1" as="geometry" />
        </mxCell>
        <mxCell id="bKvTzlDGwV6P-3HPRqgF-15" value="START" style="strokeWidth=2;html=1;shape=mxgraph.flowchart.terminator;whiteSpace=wrap;fontStyle=1" vertex="1" parent="1">
          <mxGeometry x="50" y="40" width="100" height="60" as="geometry" />
        </mxCell>
        <mxCell id="bKvTzlDGwV6P-3HPRqgF-19" value="" style="edgeStyle=orthogonalEdgeStyle;rounded=0;orthogonalLoop=1;jettySize=auto;html=1;" edge="1" parent="1" source="bKvTzlDGwV6P-3HPRqgF-16" target="bKvTzlDGwV6P-3HPRqgF-18">
          <mxGeometry relative="1" as="geometry" />
        </mxCell>
        <mxCell id="bKvTzlDGwV6P-3HPRqgF-16" value="Landing Page" style="rounded=1;whiteSpace=wrap;html=1;strokeWidth=2;fontStyle=0" vertex="1" parent="1">
          <mxGeometry x="220" y="40" width="120" height="60" as="geometry" />
        </mxCell>
        <mxCell id="bKvTzlDGwV6P-3HPRqgF-22" value="No" style="edgeStyle=orthogonalEdgeStyle;rounded=0;orthogonalLoop=1;jettySize=auto;html=1;" edge="1" parent="1" source="bKvTzlDGwV6P-3HPRqgF-18" target="bKvTzlDGwV6P-3HPRqgF-21">
          <mxGeometry relative="1" as="geometry" />
        </mxCell>
        <mxCell id="bKvTzlDGwV6P-3HPRqgF-66" value="Yes" style="edgeStyle=orthogonalEdgeStyle;rounded=0;orthogonalLoop=1;jettySize=auto;html=1;" edge="1" parent="1" source="bKvTzlDGwV6P-3HPRqgF-18" target="bKvTzlDGwV6P-3HPRqgF-62">
          <mxGeometry x="0.2" relative="1" as="geometry">
            <mxPoint as="offset" />
          </mxGeometry>
        </mxCell>
        <mxCell id="bKvTzlDGwV6P-3HPRqgF-18" value="Registered?" style="rhombus;whiteSpace=wrap;html=1;rounded=1;strokeWidth=2;fontStyle=0;" vertex="1" parent="1">
          <mxGeometry x="440" y="20" width="100" height="100" as="geometry" />
        </mxCell>
        <mxCell id="bKvTzlDGwV6P-3HPRqgF-23" style="edgeStyle=orthogonalEdgeStyle;rounded=0;orthogonalLoop=1;jettySize=auto;html=1;" edge="1" parent="1" source="bKvTzlDGwV6P-3HPRqgF-21" target="bKvTzlDGwV6P-3HPRqgF-24">
          <mxGeometry relative="1" as="geometry">
            <mxPoint x="670" y="200" as="targetPoint" />
            <Array as="points">
              <mxPoint x="670" y="280" />
            </Array>
          </mxGeometry>
        </mxCell>
        <mxCell id="bKvTzlDGwV6P-3HPRqgF-21" value="Register" style="shape=parallelogram;perimeter=parallelogramPerimeter;whiteSpace=wrap;html=1;fixedSize=1;rounded=1;strokeWidth=2;fontStyle=0;" vertex="1" parent="1">
          <mxGeometry x="610" y="40" width="120" height="60" as="geometry" />
        </mxCell>
        <mxCell id="bKvTzlDGwV6P-3HPRqgF-31" value="" style="edgeStyle=orthogonalEdgeStyle;rounded=0;orthogonalLoop=1;jettySize=auto;html=1;" edge="1" parent="1" source="bKvTzlDGwV6P-3HPRqgF-24" target="bKvTzlDGwV6P-3HPRqgF-30">
          <mxGeometry relative="1" as="geometry" />
        </mxCell>
        <mxCell id="bKvTzlDGwV6P-3HPRqgF-24" value="DB" style="strokeWidth=2;html=1;shape=mxgraph.flowchart.database;whiteSpace=wrap;" vertex="1" parent="1">
          <mxGeometry x="460" y="250" width="60" height="60" as="geometry" />
        </mxCell>
        <mxCell id="bKvTzlDGwV6P-3HPRqgF-48" value="Yes" style="edgeStyle=orthogonalEdgeStyle;rounded=0;orthogonalLoop=1;jettySize=auto;html=1;" edge="1" parent="1" source="bKvTzlDGwV6P-3HPRqgF-30" target="bKvTzlDGwV6P-3HPRqgF-47">
          <mxGeometry relative="1" as="geometry" />
        </mxCell>
        <mxCell id="bKvTzlDGwV6P-3HPRqgF-67" value="NO" style="edgeStyle=orthogonalEdgeStyle;rounded=0;orthogonalLoop=1;jettySize=auto;html=1;entryX=0;entryY=0.5;entryDx=0;entryDy=0;" edge="1" parent="1" source="bKvTzlDGwV6P-3HPRqgF-30" target="bKvTzlDGwV6P-3HPRqgF-62">
          <mxGeometry x="-0.6251" relative="1" as="geometry">
            <Array as="points">
              <mxPoint x="330" y="180" />
            </Array>
            <mxPoint as="offset" />
          </mxGeometry>
        </mxCell>
        <mxCell id="bKvTzlDGwV6P-3HPRqgF-30" value="Correct Credentials?" style="rhombus;whiteSpace=wrap;html=1;strokeWidth=2;" vertex="1" parent="1">
          <mxGeometry x="280" y="230" width="100" height="100" as="geometry" />
        </mxCell>
        <mxCell id="bKvTzlDGwV6P-3HPRqgF-50" value="" style="edgeStyle=orthogonalEdgeStyle;rounded=0;orthogonalLoop=1;jettySize=auto;html=1;" edge="1" parent="1" source="bKvTzlDGwV6P-3HPRqgF-47" target="bKvTzlDGwV6P-3HPRqgF-49">
          <mxGeometry relative="1" as="geometry" />
        </mxCell>
        <mxCell id="bKvTzlDGwV6P-3HPRqgF-52" value="" style="edgeStyle=orthogonalEdgeStyle;rounded=0;orthogonalLoop=1;jettySize=auto;html=1;" edge="1" parent="1" source="bKvTzlDGwV6P-3HPRqgF-47" target="bKvTzlDGwV6P-3HPRqgF-51">
          <mxGeometry relative="1" as="geometry" />
        </mxCell>
        <mxCell id="bKvTzlDGwV6P-3HPRqgF-47" value="Roles" style="whiteSpace=wrap;html=1;strokeWidth=2;" vertex="1" parent="1">
          <mxGeometry x="270" y="380" width="120" height="60" as="geometry" />
        </mxCell>
        <mxCell id="bKvTzlDGwV6P-3HPRqgF-74" style="edgeStyle=orthogonalEdgeStyle;rounded=0;orthogonalLoop=1;jettySize=auto;html=1;entryX=1;entryY=0.5;entryDx=0;entryDy=0;" edge="1" parent="1" source="bKvTzlDGwV6P-3HPRqgF-49" target="bKvTzlDGwV6P-3HPRqgF-55">
          <mxGeometry relative="1" as="geometry">
            <Array as="points">
              <mxPoint x="720" y="770" />
            </Array>
          </mxGeometry>
        </mxCell>
        <mxCell id="bKvTzlDGwV6P-3HPRqgF-77" value="" style="edgeStyle=orthogonalEdgeStyle;rounded=0;orthogonalLoop=1;jettySize=auto;html=1;" edge="1" parent="1" source="bKvTzlDGwV6P-3HPRqgF-49" target="bKvTzlDGwV6P-3HPRqgF-76">
          <mxGeometry relative="1" as="geometry">
            <Array as="points">
              <mxPoint x="620" y="450" />
              <mxPoint x="330" y="450" />
            </Array>
          </mxGeometry>
        </mxCell>
        <mxCell id="bKvTzlDGwV6P-3HPRqgF-94" style="edgeStyle=orthogonalEdgeStyle;rounded=0;orthogonalLoop=1;jettySize=auto;html=1;exitX=0.25;exitY=1;exitDx=0;exitDy=0;entryX=0.5;entryY=0;entryDx=0;entryDy=0;" edge="1" parent="1" source="bKvTzlDGwV6P-3HPRqgF-49" target="bKvTzlDGwV6P-3HPRqgF-91">
          <mxGeometry relative="1" as="geometry" />
        </mxCell>
        <mxCell id="bKvTzlDGwV6P-3HPRqgF-107" value="" style="edgeStyle=orthogonalEdgeStyle;rounded=0;orthogonalLoop=1;jettySize=auto;html=1;" edge="1" parent="1" source="bKvTzlDGwV6P-3HPRqgF-49" target="bKvTzlDGwV6P-3HPRqgF-106">
          <mxGeometry relative="1" as="geometry" />
        </mxCell>
        <mxCell id="bKvTzlDGwV6P-3HPRqgF-49" value="Administrator / Staff" style="whiteSpace=wrap;html=1;strokeWidth=2;" vertex="1" parent="1">
          <mxGeometry x="610" y="380" width="120" height="60" as="geometry" />
        </mxCell>
        <mxCell id="bKvTzlDGwV6P-3HPRqgF-54" value="" style="edgeStyle=orthogonalEdgeStyle;rounded=0;orthogonalLoop=1;jettySize=auto;html=1;" edge="1" parent="1" source="bKvTzlDGwV6P-3HPRqgF-51" target="bKvTzlDGwV6P-3HPRqgF-53">
          <mxGeometry relative="1" as="geometry" />
        </mxCell>
        <mxCell id="bKvTzlDGwV6P-3HPRqgF-51" value="Customer" style="whiteSpace=wrap;html=1;strokeWidth=2;" vertex="1" parent="1">
          <mxGeometry x="70" y="380" width="120" height="60" as="geometry" />
        </mxCell>
        <mxCell id="bKvTzlDGwV6P-3HPRqgF-58" value="" style="edgeStyle=orthogonalEdgeStyle;rounded=0;orthogonalLoop=1;jettySize=auto;html=1;" edge="1" parent="1" source="bKvTzlDGwV6P-3HPRqgF-53" target="bKvTzlDGwV6P-3HPRqgF-57">
          <mxGeometry relative="1" as="geometry" />
        </mxCell>
        <mxCell id="bKvTzlDGwV6P-3HPRqgF-53" value="Visit Shop" style="whiteSpace=wrap;html=1;strokeWidth=2;" vertex="1" parent="1">
          <mxGeometry x="70" y="470" width="120" height="60" as="geometry" />
        </mxCell>
        <mxCell id="bKvTzlDGwV6P-3HPRqgF-55" value="Order Management" style="whiteSpace=wrap;html=1;strokeWidth=2;" vertex="1" parent="1">
          <mxGeometry x="300" y="740" width="120" height="60" as="geometry" />
        </mxCell>
        <mxCell id="bKvTzlDGwV6P-3HPRqgF-70" value="" style="edgeStyle=orthogonalEdgeStyle;rounded=0;orthogonalLoop=1;jettySize=auto;html=1;" edge="1" parent="1" source="bKvTzlDGwV6P-3HPRqgF-57" target="bKvTzlDGwV6P-3HPRqgF-69">
          <mxGeometry relative="1" as="geometry" />
        </mxCell>
        <mxCell id="bKvTzlDGwV6P-3HPRqgF-57" value="View Product" style="whiteSpace=wrap;html=1;strokeWidth=2;" vertex="1" parent="1">
          <mxGeometry x="70" y="550" width="120" height="60" as="geometry" />
        </mxCell>
        <mxCell id="bKvTzlDGwV6P-3HPRqgF-65" value="" style="edgeStyle=orthogonalEdgeStyle;rounded=0;orthogonalLoop=1;jettySize=auto;html=1;" edge="1" parent="1" source="bKvTzlDGwV6P-3HPRqgF-62" target="bKvTzlDGwV6P-3HPRqgF-24">
          <mxGeometry relative="1" as="geometry" />
        </mxCell>
        <mxCell id="bKvTzlDGwV6P-3HPRqgF-62" value="Login" style="shape=parallelogram;perimeter=parallelogramPerimeter;whiteSpace=wrap;html=1;fixedSize=1;rounded=1;strokeWidth=2;fontStyle=0;" vertex="1" parent="1">
          <mxGeometry x="430" y="150" width="120" height="60" as="geometry" />
        </mxCell>
        <mxCell id="bKvTzlDGwV6P-3HPRqgF-72" value="" style="edgeStyle=orthogonalEdgeStyle;rounded=0;orthogonalLoop=1;jettySize=auto;html=1;" edge="1" parent="1" source="bKvTzlDGwV6P-3HPRqgF-69" target="bKvTzlDGwV6P-3HPRqgF-71">
          <mxGeometry relative="1" as="geometry" />
        </mxCell>
        <mxCell id="bKvTzlDGwV6P-3HPRqgF-69" value="Add to Cart" style="shape=parallelogram;perimeter=parallelogramPerimeter;whiteSpace=wrap;html=1;fixedSize=1;strokeWidth=2;rounded=1;" vertex="1" parent="1">
          <mxGeometry x="70" y="640" width="120" height="60" as="geometry" />
        </mxCell>
        <mxCell id="bKvTzlDGwV6P-3HPRqgF-73" style="edgeStyle=orthogonalEdgeStyle;rounded=0;orthogonalLoop=1;jettySize=auto;html=1;entryX=0;entryY=0.5;entryDx=0;entryDy=0;" edge="1" parent="1" source="bKvTzlDGwV6P-3HPRqgF-71" target="bKvTzlDGwV6P-3HPRqgF-55">
          <mxGeometry relative="1" as="geometry" />
        </mxCell>
        <mxCell id="bKvTzlDGwV6P-3HPRqgF-111" value="" style="edgeStyle=orthogonalEdgeStyle;rounded=0;orthogonalLoop=1;jettySize=auto;html=1;" edge="1" parent="1" source="bKvTzlDGwV6P-3HPRqgF-71" target="bKvTzlDGwV6P-3HPRqgF-110">
          <mxGeometry relative="1" as="geometry" />
        </mxCell>
        <mxCell id="bKvTzlDGwV6P-3HPRqgF-71" value="Checkout" style="shape=parallelogram;perimeter=parallelogramPerimeter;whiteSpace=wrap;html=1;fixedSize=1;strokeWidth=2;rounded=1;" vertex="1" parent="1">
          <mxGeometry x="70" y="740" width="120" height="60" as="geometry" />
        </mxCell>
        <mxCell id="bKvTzlDGwV6P-3HPRqgF-78" value="Update" style="edgeStyle=orthogonalEdgeStyle;rounded=0;orthogonalLoop=1;jettySize=auto;html=1;entryX=1;entryY=0.5;entryDx=0;entryDy=0;" edge="1" parent="1" source="bKvTzlDGwV6P-3HPRqgF-76" target="bKvTzlDGwV6P-3HPRqgF-53">
          <mxGeometry relative="1" as="geometry" />
        </mxCell>
        <mxCell id="bKvTzlDGwV6P-3HPRqgF-76" value="Product Management" style="whiteSpace=wrap;html=1;strokeWidth=2;" vertex="1" parent="1">
          <mxGeometry x="270" y="470" width="120" height="60" as="geometry" />
        </mxCell>
        <mxCell id="bKvTzlDGwV6P-3HPRqgF-81" value="" style="edgeStyle=orthogonalEdgeStyle;rounded=0;orthogonalLoop=1;jettySize=auto;html=1;" edge="1" parent="1" source="bKvTzlDGwV6P-3HPRqgF-79" target="bKvTzlDGwV6P-3HPRqgF-80">
          <mxGeometry relative="1" as="geometry" />
        </mxCell>
        <mxCell id="bKvTzlDGwV6P-3HPRqgF-79" value="DB" style="strokeWidth=2;html=1;shape=mxgraph.flowchart.database;whiteSpace=wrap;" vertex="1" parent="1">
          <mxGeometry x="780" y="880" width="60" height="60" as="geometry" />
        </mxCell>
        <mxCell id="bKvTzlDGwV6P-3HPRqgF-80" value="END" style="strokeWidth=2;html=1;shape=mxgraph.flowchart.terminator;whiteSpace=wrap;fontStyle=1" vertex="1" parent="1">
          <mxGeometry x="880" y="880" width="100" height="60" as="geometry" />
        </mxCell>
        <mxCell id="bKvTzlDGwV6P-3HPRqgF-83" style="edgeStyle=orthogonalEdgeStyle;rounded=0;orthogonalLoop=1;jettySize=auto;html=1;" edge="1" parent="1" source="bKvTzlDGwV6P-3HPRqgF-76">
          <mxGeometry relative="1" as="geometry">
            <mxPoint x="780" y="920" as="targetPoint" />
            <Array as="points">
              <mxPoint x="280" y="920" />
            </Array>
          </mxGeometry>
        </mxCell>
        <mxCell id="bKvTzlDGwV6P-3HPRqgF-88" value="" style="edgeStyle=orthogonalEdgeStyle;rounded=0;orthogonalLoop=1;jettySize=auto;html=1;" edge="1" parent="1" source="bKvTzlDGwV6P-3HPRqgF-84" target="bKvTzlDGwV6P-3HPRqgF-87">
          <mxGeometry relative="1" as="geometry" />
        </mxCell>
        <mxCell id="bKvTzlDGwV6P-3HPRqgF-89" value="YES" style="edgeStyle=orthogonalEdgeStyle;rounded=0;orthogonalLoop=1;jettySize=auto;html=1;" edge="1" parent="1" source="bKvTzlDGwV6P-3HPRqgF-84" target="bKvTzlDGwV6P-3HPRqgF-87">
          <mxGeometry relative="1" as="geometry" />
        </mxCell>
        <mxCell id="bKvTzlDGwV6P-3HPRqgF-84" value="Low Stock?" style="rhombus;whiteSpace=wrap;html=1;strokeWidth=2;" vertex="1" parent="1">
          <mxGeometry x="450" y="580" width="80" height="80" as="geometry" />
        </mxCell>
        <mxCell id="bKvTzlDGwV6P-3HPRqgF-90" style="edgeStyle=orthogonalEdgeStyle;rounded=0;orthogonalLoop=1;jettySize=auto;html=1;entryX=1;entryY=0.5;entryDx=0;entryDy=0;exitX=0;exitY=0.5;exitDx=0;exitDy=0;" edge="1" parent="1" source="bKvTzlDGwV6P-3HPRqgF-87" target="bKvTzlDGwV6P-3HPRqgF-76">
          <mxGeometry relative="1" as="geometry">
            <Array as="points">
              <mxPoint x="420" y="500" />
              <mxPoint x="420" y="500" />
            </Array>
          </mxGeometry>
        </mxCell>
        <mxCell id="bKvTzlDGwV6P-3HPRqgF-87" value="Add Stock" style="shape=parallelogram;perimeter=parallelogramPerimeter;whiteSpace=wrap;html=1;fixedSize=1;strokeWidth=2;rounded=1;" vertex="1" parent="1">
          <mxGeometry x="430" y="470" width="120" height="60" as="geometry" />
        </mxCell>
        <mxCell id="bKvTzlDGwV6P-3HPRqgF-99" style="edgeStyle=orthogonalEdgeStyle;rounded=0;orthogonalLoop=1;jettySize=auto;html=1;entryX=1;entryY=0.5;entryDx=0;entryDy=0;" edge="1" parent="1" source="bKvTzlDGwV6P-3HPRqgF-91" target="bKvTzlDGwV6P-3HPRqgF-84">
          <mxGeometry relative="1" as="geometry">
            <Array as="points">
              <mxPoint x="640" y="620" />
            </Array>
          </mxGeometry>
        </mxCell>
        <mxCell id="bKvTzlDGwV6P-3HPRqgF-91" value="Supply Management" style="whiteSpace=wrap;html=1;strokeWidth=2;" vertex="1" parent="1">
          <mxGeometry x="580" y="470" width="120" height="60" as="geometry" />
        </mxCell>
        <mxCell id="bKvTzlDGwV6P-3HPRqgF-98" style="edgeStyle=orthogonalEdgeStyle;rounded=0;orthogonalLoop=1;jettySize=auto;html=1;entryX=0;entryY=0.5;entryDx=0;entryDy=0;" edge="1" parent="1" source="bKvTzlDGwV6P-3HPRqgF-87" target="bKvTzlDGwV6P-3HPRqgF-91">
          <mxGeometry relative="1" as="geometry" />
        </mxCell>
        <mxCell id="bKvTzlDGwV6P-3HPRqgF-100" style="edgeStyle=orthogonalEdgeStyle;rounded=0;orthogonalLoop=1;jettySize=auto;html=1;entryX=0;entryY=0.5;entryDx=0;entryDy=0;" edge="1" parent="1" source="bKvTzlDGwV6P-3HPRqgF-76" target="bKvTzlDGwV6P-3HPRqgF-84">
          <mxGeometry relative="1" as="geometry">
            <mxPoint x="450" y="626" as="targetPoint" />
            <Array as="points">
              <mxPoint x="330" y="620" />
            </Array>
          </mxGeometry>
        </mxCell>
        <mxCell id="bKvTzlDGwV6P-3HPRqgF-102" style="edgeStyle=orthogonalEdgeStyle;rounded=0;orthogonalLoop=1;jettySize=auto;html=1;exitX=0.25;exitY=1;exitDx=0;exitDy=0;entryX=0;entryY=0.5;entryDx=0;entryDy=0;entryPerimeter=0;" edge="1" parent="1" source="bKvTzlDGwV6P-3HPRqgF-55" target="bKvTzlDGwV6P-3HPRqgF-79">
          <mxGeometry relative="1" as="geometry">
            <Array as="points">
              <mxPoint x="310" y="800" />
              <mxPoint x="310" y="910" />
            </Array>
          </mxGeometry>
        </mxCell>
        <mxCell id="bKvTzlDGwV6P-3HPRqgF-103" style="edgeStyle=orthogonalEdgeStyle;rounded=0;orthogonalLoop=1;jettySize=auto;html=1;exitX=0.75;exitY=1;exitDx=0;exitDy=0;entryX=0.5;entryY=0;entryDx=0;entryDy=0;entryPerimeter=0;" edge="1" parent="1" source="bKvTzlDGwV6P-3HPRqgF-76" target="bKvTzlDGwV6P-3HPRqgF-79">
          <mxGeometry relative="1" as="geometry" />
        </mxCell>
        <mxCell id="bKvTzlDGwV6P-3HPRqgF-104" style="edgeStyle=orthogonalEdgeStyle;rounded=0;orthogonalLoop=1;jettySize=auto;html=1;exitX=1;exitY=0.75;exitDx=0;exitDy=0;entryX=0.5;entryY=0;entryDx=0;entryDy=0;entryPerimeter=0;" edge="1" parent="1" source="bKvTzlDGwV6P-3HPRqgF-91" target="bKvTzlDGwV6P-3HPRqgF-79">
          <mxGeometry relative="1" as="geometry" />
        </mxCell>
        <mxCell id="bKvTzlDGwV6P-3HPRqgF-108" style="edgeStyle=orthogonalEdgeStyle;rounded=0;orthogonalLoop=1;jettySize=auto;html=1;" edge="1" parent="1" source="bKvTzlDGwV6P-3HPRqgF-106">
          <mxGeometry relative="1" as="geometry">
            <mxPoint x="810" y="880" as="targetPoint" />
          </mxGeometry>
        </mxCell>
        <mxCell id="bKvTzlDGwV6P-3HPRqgF-106" value="User Management Web Management" style="whiteSpace=wrap;html=1;strokeWidth=2;" vertex="1" parent="1">
          <mxGeometry x="750" y="380" width="120" height="60" as="geometry" />
        </mxCell>
        <mxCell id="bKvTzlDGwV6P-3HPRqgF-113" value="YES" style="edgeStyle=orthogonalEdgeStyle;rounded=0;orthogonalLoop=1;jettySize=auto;html=1;" edge="1" parent="1" source="bKvTzlDGwV6P-3HPRqgF-110" target="bKvTzlDGwV6P-3HPRqgF-112">
          <mxGeometry relative="1" as="geometry">
            <Array as="points">
              <mxPoint x="130" y="960" />
            </Array>
          </mxGeometry>
        </mxCell>
        <mxCell id="bKvTzlDGwV6P-3HPRqgF-115" value="NO" style="edgeStyle=orthogonalEdgeStyle;rounded=0;orthogonalLoop=1;jettySize=auto;html=1;entryX=0;entryY=0.5;entryDx=0;entryDy=0;exitX=0;exitY=0.5;exitDx=0;exitDy=0;" edge="1" parent="1" source="bKvTzlDGwV6P-3HPRqgF-110" target="bKvTzlDGwV6P-3HPRqgF-53">
          <mxGeometry x="-0.9048" relative="1" as="geometry">
            <Array as="points">
              <mxPoint x="40" y="885" />
              <mxPoint x="40" y="500" />
            </Array>
            <mxPoint as="offset" />
          </mxGeometry>
        </mxCell>
        <mxCell id="bKvTzlDGwV6P-3HPRqgF-110" value="Finished Shopping?" style="rhombus;whiteSpace=wrap;html=1;strokeWidth=2;rounded=1;" vertex="1" parent="1">
          <mxGeometry x="85" y="840" width="90" height="90" as="geometry" />
        </mxCell>
        <mxCell id="bKvTzlDGwV6P-3HPRqgF-112" value="Logout" style="shape=parallelogram;perimeter=parallelogramPerimeter;whiteSpace=wrap;html=1;fixedSize=1;strokeWidth=2;rounded=1;fontStyle=1" vertex="1" parent="1">
          <mxGeometry x="270" y="930" width="120" height="60" as="geometry" />
        </mxCell>
        <mxCell id="bKvTzlDGwV6P-3HPRqgF-114" style="edgeStyle=orthogonalEdgeStyle;rounded=0;orthogonalLoop=1;jettySize=auto;html=1;entryX=0.5;entryY=1;entryDx=0;entryDy=0;entryPerimeter=0;" edge="1" parent="1" source="bKvTzlDGwV6P-3HPRqgF-112" target="bKvTzlDGwV6P-3HPRqgF-80">
          <mxGeometry relative="1" as="geometry" />
        </mxCell>
      </root>
    </mxGraphModel>
  </diagram>
</mxfile>
